{
  "accessors": [
    {
      "bufferView": 2,
      "componentType": 5126,
      "count": 212,
      "max": [
        2.0714523792266846,
        12.954318046569824,
        1.2652747631072998
      ],
      "min": [
        -2.0714523792266846,
        9.899157524108887,
        -1.2613837718963623
      ],
      "type": "VEC3"
    },
    {
      "bufferView": 2,
      "byteOffset": 2544,
      "componentType": 5126,
      "count": 212,
      "max": [
        0.9887624979019165,
        0.9558939337730408,
        0.9810978174209595
      ],
      "min": [
        -0.9887624979019165,
        -0.9704081416130066,
        -0.9685945510864258
      ],
      "type": "VEC3"
    },
    {
      "bufferView": 1,
      "componentType": 5125,
      "count": 324,
      "type": "SCALAR"
    },
    {
      "bufferView": 2,
      "byteOffset": 5088,
      "componentType": 5126,
      "count": 286,
      "max": [
        4.38130521774292,
        14.5231351852417,
        1.1345953941345215
      ],
      "min": [
        -4.38130521774292,
        12.09815502166748,
        -0.9267027378082275
      ],
      "type": "VEC3"
    },
    {
      "bufferView": 2,
      "byteOffset": 8520,
      "componentType": 5126,
      "count": 286,
      "max": [
        1.0,
        0.9534652233123779,
        0.9972560405731201
      ],
      "min": [
        -1.0,
        -0.9709713459014893,
        -0.9972560405731201
      ],
      "type": "VEC3"
    },
    {
      "bufferView": 1,
      "byteOffset": 1296,
      "componentType": 5125,
      "count": 432,
      "type": "SCALAR"
    },
    {
      "bufferView": 2,
      "byteOffset": 11952,
      "componentType": 5126,
      "count": 128,
      "max": [
        0.8944898843765259,
        9.899157524108887,
        0.980527400970459
      ],
      "min": [
        -0.8944898843765259,
        5.938790798187256,
        -1.2613837718963623
      ],
      "type": "VEC3"
    },
    {
      "bufferView": 2,
      "byteOffset": 13488,
      "componentType": 5126,
      "count": 128,
      "max": [
        0.9935147166252136,
        0.07904680073261261,
        0.9471676349639893
      ],
      "min": [
        -0.9935147166252136,
        -0.3353670537471771,
        -0.9989301562309265
      ],
      "type": "VEC3"
    },
    {
      "bufferView": 1,
      "byteOffset": 3024,
      "componentType": 5125,
      "count": 192,
      "type": "SCALAR"
    },
    {
      "bufferView": 2,
      "byteOffset": 15024,
      "componentType": 5126,
      "count": 200,
      "max": [
        0.8014456033706665,
        5.938790798187256,
        1.501497745513916
      ],
      "min": [
        -0.8014456033706665,
        5.032278537750244,
        -1.0570824146270752
      ],
      "type": "VEC3"
    },
    {
      "bufferView": 2,
      "byteOffset": 17424,
      "componentType": 5126,
      "count": 200,
      "max": [
        1.0,
        0.9945796728134155,
        1.0
      ],
      "min": [
        -1.0,
        -1.0,
        -1.0
      ],
      "type": "VEC3"
    },
    {
      "bufferView": 1,
      "byteOffset": 3792,
      "componentType": 5125,
      "count": 312,
      "type": "SCALAR"
    },
    {
      "bufferView": 2,
      "byteOffset": 19824,
      "componentType": 5126,
      "count": 80,
      "max": [
        0.44772225618362427,
        14.76024055480957,
        1.046499252319336
      ],
      "min": [
        -0.44772225618362427,
        14.435026168823242,
        -0.8701813817024231
      ],
      "type": "VEC3"
    },
    {
      "bufferView": 2,
      "byteOffset": 20784,
      "componentType": 5126,
      "count": 80,
      "max": [
        0.9758679866790771,
        1.0,
        0.7828282117843628
      ],
      "min": [
        -0.9758679866790771,
        -0.24090981483459473,
        -0.7988280653953552
      ],
      "type": "VEC3"
    },
    {
      "bufferView": 1,
      "byteOffset": 5040,
      "componentType": 5125,
      "count": 120,
      "type": "SCALAR"
    },
    {
      "bufferView": 4,
      "componentType": 5126,
      "count": 28,
      "max": [
        100.0,
        0.9998700618743896,
        0.6616216897964478,
        0.0,
        0.027681434527039528,
        54.366432189941406,
        0.5436643362045288,
        0.0,
        0.9999998211860657,
        0.9995719790458679,
        99.99998474121094,
        0.0,
        0.48663291335105896,
        7.718133926391602,
        0.49526092410087585,
        1.0
      ],
      "min": [
        -1.0000001192092896,
        -1.0,
        -0.6994630694389343,
        0.0,
        -0.025322189554572105,
        -0.5436643362045288,
        -0.03488612174987793,
        0.0,
        -0.9999997019767761,
        -0.11179476231336594,
        -0.9999999403953552,
        0.0,
        -0.4737531244754791,
        -8.125473022460938,
        -7.459820747375488,
        1.0
      ],
      "type": "MAT4"
    },
    {
      "bufferView": 0,
      "componentType": 5123,
      "count": 212,
      "type": "VEC4"
    },
    {
      "bufferView": 3,
      "componentType": 5126,
      "count": 212,
      "max": [
        1.0,
        0.4936605989933014,
        0.2685898244380951,
        0.07797332853078842
      ],
      "min": [
        0.34620505571365356,
        0.0,
        0.0,
        0.0
      ],
      "type": "VEC4"
    },
    {
      "bufferView": 0,
      "byteOffset": 1696,
      "componentType": 5123,
      "count": 286,
      "type": "VEC4"
    },
    {
      "bufferView": 3,
      "byteOffset": 3392,
      "componentType": 5126,
      "count": 286,
      "max": [
        1.0,
        0.4936605989933014,
        0.25456947088241577,
        0.07797332853078842
      ],
      "min": [
        0.34620505571365356,
        0.0,
        0.0,
        0.0
      ],
      "type": "VEC4"
    },
    {
      "bufferView": 0,
      "byteOffset": 3984,
      "componentType": 5123,
      "count": 128,
      "type": "VEC4"
    },
    {
      "bufferView": 3,
      "byteOffset": 7968,
      "componentType": 5126,
      "count": 128,
      "max": [
        1.0,
        0.497831255197525,
        0.25946587324142456,
        0.07271156460046768
      ],
      "min": [
        0.39060935378074646,
        0.0,
        0.0,
        0.0
      ],
      "type": "VEC4"
    },
    {
      "bufferView": 0,
      "byteOffset": 5008,
      "componentType": 5123,
      "count": 200,
      "type": "VEC4"
    },
    {
      "bufferView": 3,
      "byteOffset": 10016,
      "componentType": 5126,
      "count": 200,
      "max": [
        1.0,
        0.4686826765537262,
        0.0,
        0.0
      ],
      "min": [
        0.5313173532485962,
        0.0,
        0.0,
        0.0
      ],
      "type": "VEC4"
    },
    {
      "bufferView": 0,
      "byteOffset": 6608,
      "componentType": 5123,
      "count": 80,
      "type": "VEC4"
    },
    {
      "bufferView": 3,
      "byteOffset": 13216,
      "componentType": 5126,
      "count": 80,
      "max": [
        1.0,
        0.0,
        0.0,
        0.0
      ],
      "min": [
        1.0,
        0.0,
        0.0,
        0.0
      ],
      "type": "VEC4"
    },
    {
      "bufferView": 5,
      "componentType": 5126,
      "count": 199,
      "max": [
        6.625
      ],
      "min": [
        0.0
      ],
      "type": "SCALAR"
    },
    {
      "bufferView": 7,
      "componentType": 5126,
      "count": 199,
      "max": [
        0.016395587474107742,
        -7.952235847596967e-08,
        -1.9356649616497634e-09,
        0.9998655915260315
      ],
      "min": [
        0.016395587474107742,
        -7.952235847596967e-08,
        -1.9356649616497634e-09,
        0.9998655915260315
      ],
      "type": "VEC4"
    },
    {
      "bufferView": 5,
      "byteOffset": 796,
      "componentType": 5126,
      "count": 199,
      "max": [
        6.625
      ],
      "min": [
        0.0
      ],
      "type": "SCALAR"
    },
    {
      "bufferView": 7,
      "byteOffset": 3184,
      "componentType": 5126,
      "count": 199,
      "max": [
        -0.06521040201187134,
        -0.025259751826524734,
        -0.13689565658569336,
        0.9881139397621155
      ],
      "min": [
        -0.06521040201187134,
        -0.025259751826524734,
        -0.13689565658569336,
        0.9881139397621155
      ],
      "type": "VEC4"
    },
    {
      "bufferView": 5,
      "byteOffset": 1592,
      "componentType": 5126,
      "count": 199,
      "max": [
        6.625
      ],
      "min": [
        0.0
      ],
      "type": "SCALAR"
    },
    {
      "bufferView": 7,
      "byteOffset": 6368,
      "componentType": 5126,
      "count": 199,
      "max": [
        -0.4738040566444397,
        0.02658458799123764,
        0.03253229707479477,
        0.879627525806427
      ],
      "min": [
        -0.4738040566444397,
        0.02658458799123764,
        0.03253229707479477,
        0.879627525806427
      ],
      "type": "VEC4"
    },
    {
      "bufferView": 5,
      "byteOffset": 2388,
      "componentType": 5126,
      "count": 186,
      "max": [
        6.625
      ],
      "min": [
        0.0
      ],
      "type": "SCALAR"
    },
    {
      "bufferView": 7,
      "byteOffset": 9552,
      "componentType": 5126,
      "count": 186,
      "max": [
        0.2637265622615814,
        0.7251185178756714,
        -0.5180715322494507,
        0.3691250681877136
      ],
      "min": [
        0.2637265622615814,
        0.7251185178756714,
        -0.5180715322494507,
        0.3691250681877136
      ],
      "type": "VEC4"
    },
    {
      "bufferView": 5,
      "byteOffset": 3132,
      "componentType": 5126,
      "count": 199,
      "max": [
        6.625
      ],
      "min": [
        0.0
      ],
      "type": "SCALAR"
    },
    {
      "bufferView": 7,
      "byteOffset": 12528,
      "componentType": 5126,
      "count": 199,
      "max": [
        0.008240978233516216,
        2.3283854844180496e-08,
        -8.149348973418569e-10,
        0.999966025352478
      ],
      "min": [
        0.008240978233516216,
        2.3283854844180496e-08,
        -8.149349528530081e-10,
        0.999966025352478
      ],
      "type": "VEC4"
    },
    {
      "bufferView": 5,
      "byteOffset": 3928,
      "componentType": 5126,
      "count": 199,
      "max": [
        6.625
      ],
      "min": [
        0.0
      ],
      "type": "SCALAR"
    },
    {
      "bufferView": 7,
      "byteOffset": 15712,
      "componentType": 5126,
      "count": 199,
      "max": [
        -0.09464646130800247,
        0.027921481058001518,
        0.13624876737594604,
        0.9857478141784668
      ],
      "min": [
        -0.09464646130800247,
        0.027921481058001518,
        0.13624876737594604,
        0.9857478141784668
      ],
      "type": "VEC4"
    },
    {
      "bufferView": 5,
      "byteOffset": 4724,
      "componentType": 5126,
      "count": 144,
      "max": [
        6.625
      ],
      "min": [
        0.0
      ],
      "type": "SCALAR"
    },
    {
      "bufferView": 6,
      "componentType": 5126,
      "count": 144,
      "max": [
        2.2376416275449174e-09,
        1.0516754388809204,
        1.4901162970204496e-08
      ],
      "min": [
        2.2376409614111026e-09,
        1.0516754388809204,
        1.4901159417490817e-08
      ],
      "type": "VEC3"
    },
    {
      "bufferView": 5,
      "byteOffset": 5300,
      "componentType": 5126,
      "count": 199,
      "max": [
        6.625
      ],
      "min": [
        0.0
      ],
      "type": "SCALAR"
    },
    {
      "bufferView": 7,
      "byteOffset": 18896,
      "componentType": 5126,
      "count": 199,
      "max": [
        -0.4545117914676666,
        -0.026519116014242172,
        -0.03258560225367546,
        0.8897493481636047
      ],
      "min": [
        -0.4545117914676666,
        -0.026519116014242172,
        -0.03258560225367546,
        0.8897493481636047
      ],
      "type": "VEC4"
    },
    {
      "bufferView": 5,
      "byteOffset": 6096,
      "componentType": 5126,
      "count": 199,
      "max": [
        6.625
      ],
      "min": [
        0.0
      ],
      "type": "SCALAR"
    },
    {
      "bufferView": 7,
      "byteOffset": 22080,
      "componentType": 5126,
      "count": 199,
      "max": [
        0.516116201877594,
        -0.3698340058326721,
        0.2627313435077667,
        0.7265115976333618
      ],
      "min": [
        0.516116201877594,
        -0.3698340058326721,
        0.2627313435077667,
        0.7265115976333618
      ],
      "type": "VEC4"
    },
    {
      "bufferView": 5,
      "byteOffset": 6892,
      "componentType": 5126,
      "count": 283,
      "max": [
        6.625
      ],
      "min": [
        0.0
      ],
      "type": "SCALAR"
    },
    {
      "bufferView": 6,
      "byteOffset": 1728,
      "componentType": 5126,
      "count": 283,
      "max": [
        7.216449660063518e-15,
        0.4108242988586426,
        2.980286950560185e-08
      ],
      "min": [
        6.994405055138486e-15,
        0.4108242988586426,
        2.980286950560185e-08
      ],
      "type": "VEC3"
    },
    {
      "bufferView": 5,
      "byteOffset": 8024,
      "componentType": 5126,
      "count": 317,
      "max": [
        6.625
      ],
      "min": [
        0.0
      ],
      "type": "SCALAR"
    },
    {
      "bufferView": 7,
      "byteOffset": 25264,
      "componentType": 5126,
      "count": 317,
      "max": [
        -0.015308883972465992,
        0.09972433745861053,
        0.09071327745914459,
        0.9998828172683716
      ],
      "min": [
        -0.10718199610710144,
        -0.2647152543067932,
        1.6198795194100057e-08,
        0.9542044401168823
      ],
      "type": "VEC4"
    },
    {
      "bufferView": 5,
      "byteOffset": 9292,
      "componentType": 5126,
      "count": 197,
      "max": [
        6.625
      ],
      "min": [
        0.0
      ],
      "type": "SCALAR"
    },
    {
      "bufferView": 7,
      "byteOffset": 30336,
      "componentType": 5126,
      "count": 197,
      "max": [
        0.9504518508911133,
        -0.009931089356541634,
        -0.3092100918292999,
        -0.030525756999850273
      ],
      "min": [
        0.9504518508911133,
        -0.009931089356541634,
        -0.3092100918292999,
        -0.030525756999850273
      ],
      "type": "VEC4"
    },
    {
      "bufferView": 5,
      "byteOffset": 10080,
      "componentType": 5126,
      "count": 318,
      "max": [
        6.625
      ],
      "min": [
        0.0
      ],
      "type": "SCALAR"
    },
    {
      "bufferView": 6,
      "byteOffset": 5124,
      "componentType": 5126,
      "count": 318,
      "max": [
        0.06631335616111755,
        -1.9584362506866455,
        0.04334842413663864
      ],
      "min": [
        8.369748627501394e-08,
        -1.9669967889785767,
        -0.12436375021934509
      ],
      "type": "VEC3"
    },
    {
      "bufferView": 5,
      "byteOffset": 11352,
      "componentType": 5126,
      "count": 318,
      "max": [
        6.625
      ],
      "min": [
        0.0
      ],
      "type": "SCALAR"
    },
    {
      "bufferView": 7,
      "byteOffset": 33488,
      "componentType": 5126,
      "count": 318,
      "max": [
        0.042405154556035995,
        -0.21469788253307343,
        0.02651412971317768,
        0.9763826131820679
      ],
      "min": [
        0.012383505702018738,
        -0.4047182500362396,
        -0.015194620005786419,
        0.9131795763969421
      ],
      "type": "VEC4"
    },
    {
      "bufferView": 5,
      "byteOffset": 12624,
      "componentType": 5126,
      "count": 1,
      "max": [
        0.0
      ],
      "min": [
        0.0
      ],
      "type": "SCALAR"
    },
    {
      "bufferView": 6,
      "byteOffset": 8940,
      "componentType": 5126,
      "count": 1,
      "max": [
        -2.887684757979514e-08,
        0.6737653613090515,
        -1.5366822481155396e-08
      ],
      "min": [
        -2.887684757979514e-08,
        0.6737653613090515,
        -1.5366822481155396e-08
      ],
      "type": "VEC3"
    },
    {
      "bufferView": 5,
      "byteOffset": 12628,
      "componentType": 5126,
      "count": 1,
      "max": [
        0.0
      ],
      "min": [
        0.0
      ],
      "type": "SCALAR"
    },
    {
      "bufferView": 7,
      "byteOffset": 38576,
      "componentType": 5126,
      "count": 1,
      "max": [
        1.563366140544531e-06,
        -0.6979321241378784,
        0.7161638736724854,
        -1.413415816386987e-06
      ],
      "min": [
        1.563366140544531e-06,
        -0.6979321241378784,
        0.7161638736724854,
        -1.413415816386987e-06
      ],
      "type": "VEC4"
    },
    {
      "bufferView": 5,
      "byteOffset": 12632,
      "componentType": 5126,
      "count": 1,
      "max": [
        0.0
      ],
      "min": [
        0.0
      ],
      "type": "SCALAR"
    },
    {
      "bufferView": 7,
      "byteOffset": 38592,
      "componentType": 5126,
      "count": 1,
      "max": [
        0.13771195709705353,
        -0.0010813636472448707,
        -0.0003551925765350461,
        0.9904716610908508
      ],
      "min": [
        0.13771195709705353,
        -0.0010813636472448707,
        -0.0003551925765350461,
        0.9904716610908508
      ],
      "type": "VEC4"
    },
    {
      "bufferView": 5,
      "byteOffset": 12636,
      "componentType": 5126,
      "count": 1,
      "max": [
        0.0
      ],
      "min": [
        0.0
      ],
      "type": "SCALAR"
    },
    {
      "bufferView": 7,
      "byteOffset": 38608,
      "componentType": 5126,
      "count": 1,
      "max": [
        -0.30084070563316345,
        0.6627660989761353,
        -0.19362302124500275,
        0.6578344106674194
      ],
      "min": [
        -0.30084070563316345,
        0.6627660989761353,
        -0.19362302124500275,
        0.6578344106674194
      ],
      "type": "VEC4"
    },
    {
      "bufferView": 5,
      "byteOffset": 12640,
      "componentType": 5126,
      "count": 1,
      "max": [
        0.0
      ],
      "min": [
        0.0
      ],
      "type": "SCALAR"
    },
    {
      "bufferView": 7,
      "byteOffset": 38624,
      "componentType": 5126,
      "count": 1,
      "max": [
        -0.0016550269210711122,
        -0.7002881169319153,
        0.7138555645942688,
        -0.0020084092393517494
      ],
      "min": [
        -0.0016550269210711122,
        -0.7002881169319153,
        0.7138555645942688,
        -0.0020084092393517494
      ],
      "type": "VEC4"
    },
    {
      "bufferView": 5,
      "byteOffset": 12644,
      "componentType": 5126,
      "count": 1,
      "max": [
        0.0
      ],
      "min": [
        0.0
      ],
      "type": "SCALAR"
    },
    {
      "bufferView": 7,
      "byteOffset": 38640,
      "componentType": 5126,
      "count": 1,
      "max": [
        0.046146947890520096,
        -0.0010483920341357589,
        0.00014427289715968072,
        0.9989340901374817
      ],
      "min": [
        0.046146947890520096,
        -0.0010483920341357589,
        0.00014427289715968072,
        0.9989340901374817
      ],
      "type": "VEC4"
    },
    {
      "bufferView": 5,
      "byteOffset": 12648,
      "componentType": 5126,
      "count": 1,
      "max": [
        0.0
      ],
      "min": [
        0.0
      ],
      "type": "SCALAR"
    },
    {
      "bufferView": 7,
      "byteOffset": 38656,
      "componentType": 5126,
      "count": 1,
      "max": [
        -0.25184401869773865,
        -0.6398122906684875,
        0.2586216926574707,
        0.6784759759902954
      ],
      "min": [
        -0.25184401869773865,
        -0.6398122906684875,
        0.2586216926574707,
        0.6784759759902954
      ],
      "type": "VEC4"
    },
    {
      "bufferView": 5,
      "byteOffset": 12652,
      "componentType": 5126,
      "count": 14,
      "max": [
        0.4583333432674408
      ],
      "min": [
        0.0
      ],
      "type": "SCALAR"
    },
    {
      "bufferView": 7,
      "byteOffset": 38672,
      "componentType": 5126,
      "count": 14,
      "max": [
        0.016395598649978638,
        -8.010451324480528e-08,
        -2.7943432012733638e-09,
        0.9998655915260315
      ],
      "min": [
        0.016395598649978638,
        -8.010451324480528e-08,
        -2.7943434233179687e-09,
        0.9998655915260315
      ],
      "type": "VEC4"
    },
    {
      "bufferView": 5,
      "byteOffset": 12708,
      "componentType": 5126,
      "count": 14,
      "max": [
        0.4583333432674408
      ],
      "min": [
        0.0
      ],
      "type": "SCALAR"
    },
    {
      "bufferView": 7,
      "byteOffset": 38896,
      "componentType": 5126,
      "count": 14,
      "max": [
        -0.0592503696680069,
        -0.08946238458156586,
        -0.47564026713371277,
        0.8730705380439758
      ],
      "min": [
        -0.0592503696680069,
        -0.08946238458156586,
        -0.47564026713371277,
        0.8730705380439758
      ],
      "type": "VEC4"
    },
    {
      "bufferView": 5,
      "byteOffset": 12764,
      "componentType": 5126,
      "count": 22,
      "max": [
        0.4583333432674408
      ],
      "min": [
        0.0
      ],
      "type": "SCALAR"
    },
    {
      "bufferView": 7,
      "byteOffset": 39120,
      "componentType": 5126,
      "count": 22,
      "max": [
        -0.4303613007068634,
        0.2808471620082855,
        0.30702030658721924,
        0.869599461555481
      ],
      "min": [
        -0.49247580766677856,
        -0.36807021498680115,
        -0.31913211941719055,
        0.7494223117828369
      ],
      "type": "VEC4"
    },
    {
      "bufferView": 5,
      "byteOffset": 12852,
      "componentType": 5126,
      "count": 11,
      "max": [
        0.4583333432674408
      ],
      "min": [
        0.0
      ],
      "type": "SCALAR"
    },
    {
      "bufferView": 6,
      "byteOffset": 8952,
      "componentType": 5126,
      "count": 11,
      "max": [
        -1.1920928955078125e-07,
        -3.0919909477233887e-07,
        -3.725290298461914e-09
      ],
      "min": [
        -1.1920928955078125e-07,
        -3.0919909477233887e-07,
        -3.725290742551124e-09
      ],
      "type": "VEC3"
    },
    {
      "bufferView": 5,
      "byteOffset": 12896,
      "componentType": 5126,
      "count": 14,
      "max": [
        0.4583333432674408
      ],
      "min": [
        0.0
      ],
      "type": "SCALAR"
    },
    {
      "bufferView": 7,
      "byteOffset": 39472,
      "componentType": 5126,
      "count": 14,
      "max": [
        0.26372653245925903,
        0.7251185774803162,
        -0.5180715322494507,
        0.36912500858306885
      ],
      "min": [
        0.26372653245925903,
        0.7251185774803162,
        -0.5180715322494507,
        0.36912500858306885
      ],
      "type": "VEC4"
    },
    {
      "bufferView": 5,
      "byteOffset": 12952,
      "componentType": 5126,
      "count": 7,
      "max": [
        0.4583333432674408
      ],
      "min": [
        0.0
      ],
      "type": "SCALAR"
    },
    {
      "bufferView": 6,
      "byteOffset": 9084,
      "componentType": 5126,
      "count": 7,
      "max": [
        -1.4901159417490817e-08,
        1.6583585739135742,
        2.2351741790771484e-08
      ],
      "min": [
        -1.4901161193847656e-08,
        1.6583585739135742,
        2.2351741790771484e-08
      ],
      "type": "VEC3"
    },
    {
      "bufferView": 5,
      "byteOffset": 12980,
      "componentType": 5126,
      "count": 14,
      "max": [
        0.4583333432674408
      ],
      "min": [
        0.0
      ],
      "type": "SCALAR"
    },
    {
      "bufferView": 7,
      "byteOffset": 39696,
      "componentType": 5126,
      "count": 14,
      "max": [
        0.008240980096161366,
        2.281817934601804e-08,
        1.0157582330805326e-08,
        0.999966025352478
      ],
      "min": [
        0.008240980096161366,
        2.281817934601804e-08,
        1.0157581442626906e-08,
        0.999966025352478
      ],
      "type": "VEC4"
    },
    {
      "bufferView": 5,
      "byteOffset": 13036,
      "componentType": 5126,
      "count": 22,
      "max": [
        0.4583333432674408
      ],
      "min": [
        0.0
      ],
      "type": "SCALAR"
    },
    {
      "bufferView": 7,
      "byteOffset": 39920,
      "componentType": 5126,
      "count": 22,
      "max": [
        -0.08650654554367065,
        0.09431394934654236,
        0.47139453887939453,
        0.9109253883361816
      ],
      "min": [
        -0.09653209149837494,
        0.08235805481672287,
        0.39257317781448364,
        0.8725873231887817
      ],
      "type": "VEC4"
    },
    {
      "bufferView": 5,
      "byteOffset": 13124,
      "componentType": 5126,
      "count": 22,
      "max": [
        0.4583333432674408
      ],
      "min": [
        0.0
      ],
      "type": "SCALAR"
    },
    {
      "bufferView": 7,
      "byteOffset": 40272,
      "componentType": 5126,
      "count": 22,
      "max": [
        -0.411539763212204,
        0.3791165351867676,
        0.30386483669281006,
        0.878541886806488
      ],
      "min": [
        -0.4826314151287079,
        -0.3133278489112854,
        -0.3387943208217621,
        0.7557758092880249
      ],
      "type": "VEC4"
    },
    {
      "bufferView": 5,
      "byteOffset": 13212,
      "componentType": 5126,
      "count": 11,
      "max": [
        0.4583333432674408
      ],
      "min": [
        0.0
      ],
      "type": "SCALAR"
    },
    {
      "bufferView": 6,
      "byteOffset": 9168,
      "componentType": 5126,
      "count": 11,
      "max": [
        -1.1920928955078125e-07,
        -3.0919909477233887e-07,
        -3.725290298461914e-09
      ],
      "min": [
        -1.1920928955078125e-07,
        -3.0919909477233887e-07,
        -3.725290742551124e-09
      ],
      "type": "VEC3"
    },
    {
      "bufferView": 5,
      "byteOffset": 13256,
      "componentType": 5126,
      "count": 14,
      "max": [
        0.4583333432674408
      ],
      "min": [
        0.0
      ],
      "type": "SCALAR"
    },
    {
      "bufferView": 7,
      "byteOffset": 40624,
      "componentType": 5126,
      "count": 14,
      "max": [
        0.516116201877594,
        -0.36983394622802734,
        0.2627313733100891,
        0.7265115976333618
      ],
      "min": [
        0.516116201877594,
        -0.36983394622802734,
        0.2627313733100891,
        0.7265115976333618
      ],
      "type": "VEC4"
    },
    {
      "bufferView": 5,
      "byteOffset": 13312,
      "componentType": 5126,
      "count": 4,
      "max": [
        0.4583333432674408
      ],
      "min": [
        0.0
      ],
      "type": "SCALAR"
    },
    {
      "bufferView": 6,
      "byteOffset": 9300,
      "componentType": 5126,
      "count": 4,
      "max": [
        3.725290298461914e-09,
        0.41082432866096497,
        1.862645149230957e-08
      ],
      "min": [
        3.725290076417309e-09,
        0.41082432866096497,
        1.862645149230957e-08
      ],
      "type": "VEC3"
    },
    {
      "bufferView": 5,
      "byteOffset": 13328,
      "componentType": 5126,
      "count": 14,
      "max": [
        0.4583333432674408
      ],
      "min": [
        0.0
      ],
      "type": "SCALAR"
    },
    {
      "bufferView": 7,
      "byteOffset": 40848,
      "componentType": 5126,
      "count": 14,
      "max": [
        -0.2599330246448517,
        -4.856132136410451e-07,
        -1.5694416788392118e-06,
        0.9656266570091248
      ],
      "min": [
        -0.2599330246448517,
        -4.856132136410451e-07,
        -1.5694416788392118e-06,
        0.9656266570091248
      ],
      "type": "VEC4"
    },
    {
      "bufferView": 5,
      "byteOffset": 13384,
      "componentType": 5126,
      "count": 11,
      "max": [
        0.4583333432674408
      ],
      "min": [
        0.0
      ],
      "type": "SCALAR"
    },
    {
      "bufferView": 6,
      "byteOffset": 9348,
      "componentType": 5126,
      "count": 11,
      "max": [
        -1.1920928955078125e-07,
        -3.0919909477233887e-07,
        -3.725290298461914e-09
      ],
      "min": [
        -1.1920928955078125e-07,
        -3.0919909477233887e-07,
        -3.725290742551124e-09
      ],
      "type": "VEC3"
    },
    {
      "bufferView": 5,
      "byteOffset": 13428,
      "componentType": 5126,
      "count": 14,
      "max": [
        0.4583333432674408
      ],
      "min": [
        0.0
      ],
      "type": "SCALAR"
    },
    {
      "bufferView": 7,
      "byteOffset": 41072,
      "componentType": 5126,
      "count": 14,
      "max": [
        0.9504518508911133,
        -0.009931083768606186,
        -0.3092100918292999,
        -0.030525755137205124
      ],
      "min": [
        0.9504518508911133,
        -0.009931083768606186,
        -0.3092100918292999,
        -0.030525755137205124
      ],
      "type": "VEC4"
    },
    {
      "bufferView": 5,
      "byteOffset": 13484,
      "componentType": 5126,
      "count": 22,
      "max": [
        0.4583333432674408
      ],
      "min": [
        0.0
      ],
      "type": "SCALAR"
    },
    {
      "bufferView": 6,
      "byteOffset": 9480,
      "componentType": 5126,
      "count": 22,
      "max": [
        0.25527507066726685,
        -1.9633023738861084,
        -0.24966120719909668
      ],
      "min": [
        -0.2834557890892029,
        -2.110487461090088,
        -0.6785078048706055
      ],
      "type": "VEC3"
    },
    {
      "bufferView": 5,
      "byteOffset": 13572,
      "componentType": 5126,
      "count": 22,
      "max": [
        0.4583333432674408
      ],
      "min": [
        0.0
      ],
      "type": "SCALAR"
    },
    {
      "bufferView": 7,
      "byteOffset": 41296,
      "componentType": 5126,
      "count": 22,
      "max": [
        0.1779031902551651,
        -0.3248633146286011,
        -0.01168308686465025,
        0.9325955510139465
      ],
      "min": [
        0.03908549249172211,
        -0.35551533102989197,
        -0.07831451296806335,
        0.9288045167922974
      ],
      "type": "VEC4"
    },
    {
      "bufferView": 5,
      "byteOffset": 13660,
      "componentType": 5126,
      "count": 22,
      "max": [
        0.4583333432674408
      ],
      "min": [
        0.0
      ],
      "type": "SCALAR"
    },
    {
      "bufferView": 7,
      "byteOffset": 41648,
      "componentType": 5126,
      "count": 22,
      "max": [
        0.011397365480661392,
        -0.495804101228714,
        0.8682639002799988,
        0.012891959398984909
      ],
      "min": [
        0.0036256304010748863,
        -0.6388867497444153,
        0.7692813277244568,
        0.004095117095857859
      ],
      "type": "VEC4"
    },
    {
      "bufferView": 5,
      "byteOffset": 13748,
      "componentType": 5126,
      "count": 14,
      "max": [
        0.4583333432674408
      ],
      "min": [
        0.0
      ],
      "type": "SCALAR"
    },
    {
      "bufferView": 7,
      "byteOffset": 42000,
      "componentType": 5126,
      "count": 14,
      "max": [
        -0.05597976967692375,
        -0.00034985734964720905,
        -0.0062398118898272514,
        0.9984123706817627
      ],
      "min": [
        -0.05597976967692375,
        -0.00034985734964720905,
        -0.0062398118898272514,
        0.9984123706817627
      ],
      "type": "VEC4"
    },
    {
      "bufferView": 5,
      "byteOffset": 13804,
      "componentType": 5126,
      "count": 14,
      "max": [
        0.4583333432674408
      ],
      "min": [
        0.0
      ],
      "type": "SCALAR"
    },
    {
      "bufferView": 6,
      "byteOffset": 9744,
      "componentType": 5126,
      "count": 14,
      "max": [
        -2.2351741790771484e-08,
        2.0500717163085938,
        3.4924600988972543e-09
      ],
      "min": [
        -2.2351741790771484e-08,
        2.0500717163085938,
        3.4924587666296247e-09
      ],
      "type": "VEC3"
    },
    {
      "bufferView": 5,
      "byteOffset": 13860,
      "componentType": 5126,
      "count": 22,
      "max": [
        0.4583333432674408
      ],
      "min": [
        0.0
      ],
      "type": "SCALAR"
    },
    {
      "bufferView": 7,
      "byteOffset": 42224,
      "componentType": 5126,
      "count": 22,
      "max": [
        0.42763787508010864,
        -0.011814497411251068,
        0.0008832935127429664,
        0.963570773601532
      ],
      "min": [
        0.26719245314598083,
        -0.025384603068232536,
        0.00018702863599173725,
        0.9035931825637817
      ],
      "type": "VEC4"
    },
    {
      "bufferView": 5,
      "byteOffset": 13948,
      "componentType": 5126,
      "count": 22,
      "max": [
        0.4583333432674408
      ],
      "min": [
        0.0
      ],
      "type": "SCALAR"
    },
    {
      "bufferView": 7,
      "byteOffset": 42576,
      "componentType": 5126,
      "count": 22,
      "max": [
        -0.003039788454771042,
        0.7077053189277649,
        0.23351453244686127,
        0.7452773451805115
      ],
      "min": [
        -0.6244271397590637,
        0.495044469833374,
        -0.4466356933116913,
        0.3099808990955353
      ],
      "type": "VEC4"
    },
    {
      "bufferView": 5,
      "byteOffset": 14036,
      "componentType": 5126,
      "count": 8,
      "max": [
        0.4583333432674408
      ],
      "min": [
        0.0
      ],
      "type": "SCALAR"
    },
    {
      "bufferView": 6,
      "byteOffset": 9912,
      "componentType": 5126,
      "count": 8,
      "max": [
        6.663586490830307e-16,
        0.9588615894317627,
        2.220446049250313e-16
      ],
      "min": [
        6.663586490830307e-16,
        0.9588615894317627,
        -2.220446049250313e-16
      ],
      "type": "VEC3"
    },
    {
      "bufferView": 5,
      "byteOffset": 14068,
      "componentType": 5126,
      "count": 22,
      "max": [
        0.4583333432674408
      ],
      "min": [
        0.0
      ],
      "type": "SCALAR"
    },
    {
      "bufferView": 7,
      "byteOffset": 42928,
      "componentType": 5126,
      "count": 22,
      "max": [
        -0.0016550262225791812,
        -0.44117066264152527,
        0.8966974020004272,
        -0.0020084097050130367
      ],
      "min": [
        -0.022969532757997513,
        -0.7002881169319153,
        0.7138555645942688,
        -0.027831953018903732
      ],
      "type": "VEC4"
    },
    {
      "bufferView": 5,
      "byteOffset": 14156,
      "componentType": 5126,
      "count": 14,
      "max": [
        0.4583333432674408
      ],
      "min": [
        0.0
      ],
      "type": "SCALAR"
    },
    {
      "bufferView": 7,
      "byteOffset": 43280,
      "componentType": 5126,
      "count": 14,
      "max": [
        -0.05598519369959831,
        1.1945483890940523e-07,
        -8.380494520565662e-09,
        0.9984316229820251
      ],
      "min": [
        -0.05598519369959831,
        1.1945483890940523e-07,
        -8.380494520565662e-09,
        0.9984316229820251
      ],
      "type": "VEC4"
    },
    {
      "bufferView": 5,
      "byteOffset": 14212,
      "componentType": 5126,
      "count": 22,
      "max": [
        0.4583333432674408
      ],
      "min": [
        0.0
      ],
      "type": "SCALAR"
    },
    {
      "bufferView": 7,
      "byteOffset": 43504,
      "componentType": 5126,
      "count": 22,
      "max": [
        0.48556146025657654,
        0.046393994241952896,
        -0.0009658439084887505,
        0.9889776110649109
      ],
      "min": [
        0.14773398637771606,
        0.009805481880903244,
        -0.006384359207004309,
        0.8729472756385803
      ],
      "type": "VEC4"
    },
    {
      "bufferView": 5,
      "byteOffset": 14300,
      "componentType": 5126,
      "count": 14,
      "max": [
        0.4583333432674408
      ],
      "min": [
        0.0
      ],
      "type": "SCALAR"
    },
    {
      "bufferView": 6,
      "byteOffset": 10008,
      "componentType": 5126,
      "count": 14,
      "max": [
        1.862645149230957e-09,
        0.6211975812911987,
        -7.078051567077637e-08
      ],
      "min": [
        1.8626449271863521e-09,
        0.6211975812911987,
        -7.078051567077637e-08
      ],
      "type": "VEC3"
    },
    {
      "bufferView": 5,
      "byteOffset": 14356,
      "componentType": 5126,
      "count": 22,
      "max": [
        0.4583333432674408
      ],
      "min": [
        0.0
      ],
      "type": "SCALAR"
    },
    {
      "bufferView": 7,
      "byteOffset": 43856,
      "componentType": 5126,
      "count": 22,
      "max": [
        0.6304833889007568,
        0.7186194062232971,
        0.4626378118991852,
        0.7489084601402283
      ],
      "min": [
        -0.41449207067489624,
        -0.7026114463806152,
        0.03301144018769264,
        -0.46884864568710327
      ],
      "type": "VEC4"
    },
    {
      "bufferView": 5,
      "byteOffset": 14444,
      "componentType": 5126,
      "count": 8,
      "max": [
        0.4583333432674408
      ],
      "min": [
        0.0
      ],
      "type": "SCALAR"
    },
    {
      "bufferView": 6,
      "byteOffset": 10176,
      "componentType": 5126,
      "count": 8,
      "max": [
        6.663586490830307e-16,
        0.9588615894317627,
        2.220446049250313e-16
      ],
      "min": [
        6.663586490830307e-16,
        0.9588615894317627,
        -2.220446049250313e-16
      ],
      "type": "VEC3"
    },
    {
      "bufferView": 5,
      "byteOffset": 14476,
      "componentType": 5126,
      "count": 22,
      "max": [
        0.4583333432674408
      ],
      "min": [
        0.0
      ],
      "type": "SCALAR"
    },
    {
      "bufferView": 6,
      "byteOffset": 10272,
      "componentType": 5126,
      "count": 22,
      "max": [
        -4.371138828673793e-08,
        1.3482450356150366e-07,
        -0.27580636739730835
      ],
      "min": [
        -4.371138828673793e-08,
        1.3482450356150366e-07,
        -0.4676317572593689
      ],
      "type": "VEC3"
    },
    {
      "bufferView": 5,
      "byteOffset": 14564,
      "componentType": 5126,
      "count": 1,
      "max": [
        0.0
      ],
      "min": [
        0.0
      ],
      "type": "SCALAR"
    },
    {
      "bufferView": 7,
      "byteOffset": 44208,
      "componentType": 5126,
      "count": 1,
      "max": [
        -0.6199665665626526,
        -7.8953973892646745e-16,
        -8.696307804354202e-16,
        0.7846282124519348
      ],
      "min": [
        -0.6199665665626526,
        -7.8953973892646745e-16,
        -8.696307804354202e-16,
        0.7846282124519348
      ],
      "type": "VEC4"
    },
    {
      "bufferView": 5,
      "byteOffset": 14568,
      "componentType": 5126,
      "count": 31,
      "max": [
        1.0
      ],
      "min": [
        0.0
      ],
      "type": "SCALAR"
    },
    {
      "bufferView": 7,
      "byteOffset": 44224,
      "componentType": 5126,
      "count": 31,
      "max": [
        0.016395581886172295,
        -7.501228083128808e-08,
        -3.984628627051734e-09,
        0.9998655915260315
      ],
      "min": [
        0.016395581886172295,
        -7.501228083128808e-08,
        -3.984629071140944e-09,
        0.9998655915260315
      ],
      "type": "VEC4"
    },
    {
      "bufferView": 5,
      "byteOffset": 14692,
      "componentType": 5126,
      "count": 22,
      "max": [
        1.0
      ],
      "min": [
        0.0
      ],
      "type": "SCALAR"
    },
    {
      "bufferView": 6,
      "byteOffset": 10536,
      "componentType": 5126,
      "count": 22,
      "max": [
        1.8760694331376726e-08,
        1.10298752784729,
        -5.21540641784668e-08
      ],
      "min": [
        1.8760690778663047e-08,
        1.10298752784729,
        -5.21540641784668e-08
      ],
      "type": "VEC3"
    },
    {
      "bufferView": 5,
      "byteOffset": 14780,
      "componentType": 5126,
      "count": 49,
      "max": [
        1.0
      ],
      "min": [
        0.0
      ],
      "type": "SCALAR"
    },
    {
      "bufferView": 7,
      "byteOffset": 44720,
      "componentType": 5126,
      "count": 49,
      "max": [
        -0.02346738614141941,
        -0.017406070604920387,
        -0.07529393583536148,
        0.9967014789581299
      ],
      "min": [
        -0.024778585880994797,
        -0.07415281236171722,
        -0.32076629996299744,
        0.9439595341682434
      ],
      "type": "VEC4"
    },
    {
      "bufferView": 5,
      "byteOffset": 14976,
      "componentType": 5126,
      "count": 49,
      "max": [
        1.0
      ],
      "min": [
        0.0
      ],
      "type": "SCALAR"
    },
    {
      "bufferView": 7,
      "byteOffset": 45504,
      "componentType": 5126,
      "count": 49,
      "max": [
        -0.43176233768463135,
        0.28149890899658203,
        0.3043656349182129,
        0.880125105381012
      ],
      "min": [
        -0.4743724763393402,
        -0.1479470133781433,
        -0.15996505320072174,
        0.8010625839233398
      ],
      "type": "VEC4"
    },
    {
      "bufferView": 5,
      "byteOffset": 15172,
      "componentType": 5126,
      "count": 31,
      "max": [
        1.0
      ],
      "min": [
        0.0
      ],
      "type": "SCALAR"
    },
    {
      "bufferView": 7,
      "byteOffset": 46288,
      "componentType": 5126,
      "count": 31,
      "max": [
        0.26372650265693665,
        0.7251185774803162,
        -0.5180715322494507,
        0.36912500858306885
      ],
      "min": [
        0.26372650265693665,
        0.7251185774803162,
        -0.5180715322494507,
        0.36912500858306885
      ],
      "type": "VEC4"
    },
    {
      "bufferView": 5,
      "byteOffset": 15296,
      "componentType": 5126,
      "count": 30,
      "max": [
        1.0
      ],
      "min": [
        0.0
      ],
      "type": "SCALAR"
    },
    {
      "bufferView": 6,
      "byteOffset": 10800,
      "componentType": 5126,
      "count": 30,
      "max": [
        -1.5702127598160587e-07,
        1.6583586931228638,
        8.881784197001252e-16
      ],
      "min": [
        -1.5702127598160587e-07,
        1.6583586931228638,
        -4.440892098500626e-16
      ],
      "type": "VEC3"
    },
    {
      "bufferView": 5,
      "byteOffset": 15416,
      "componentType": 5126,
      "count": 31,
      "max": [
        1.0
      ],
      "min": [
        0.0
      ],
      "type": "SCALAR"
    },
    {
      "bufferView": 7,
      "byteOffset": 46784,
      "componentType": 5126,
      "count": 31,
      "max": [
        0.008240973576903343,
        2.4257950315131893e-08,
        -4.447600066015411e-09,
        0.999966025352478
      ],
      "min": [
        0.008240973576903343,
        2.4257950315131893e-08,
        -4.447600066015411e-09,
        0.999966025352478
      ],
      "type": "VEC4"
    },
    {
      "bufferView": 5,
      "byteOffset": 15540,
      "componentType": 5126,
      "count": 49,
      "max": [
        1.0
      ],
      "min": [
        0.0
      ],
      "type": "SCALAR"
    },
    {
      "bufferView": 7,
      "byteOffset": 47280,
      "componentType": 5126,
      "count": 49,
      "max": [
        -0.03170335665345192,
        0.07379031181335449,
        0.307954341173172,
        0.9948626160621643
      ],
      "min": [
        -0.03327041491866112,
        0.02227906696498394,
        0.0929788276553154,
        0.9480052590370178
      ],
      "type": "VEC4"
    },
    {
      "bufferView": 5,
      "byteOffset": 15736,
      "componentType": 5126,
      "count": 49,
      "max": [
        1.0
      ],
      "min": [
        0.0
      ],
      "type": "SCALAR"
    },
    {
      "bufferView": 7,
      "byteOffset": 48064,
      "componentType": 5126,
      "count": 49,
      "max": [
        -0.42914947867393494,
        0.16081438958644867,
        0.171938955783844,
        0.8857039213180542
      ],
      "min": [
        -0.4645597040653229,
        -0.26224589347839355,
        -0.28038686513900757,
        0.8175824284553528
      ],
      "type": "VEC4"
    },
    {
      "bufferView": 5,
      "byteOffset": 15932,
      "componentType": 5126,
      "count": 31,
      "max": [
        1.0
      ],
      "min": [
        0.0
      ],
      "type": "SCALAR"
    },
    {
      "bufferView": 7,
      "byteOffset": 48848,
      "componentType": 5126,
      "count": 31,
      "max": [
        0.5161162614822388,
        -0.36983397603034973,
        0.2627313733100891,
        0.7265115976333618
      ],
      "min": [
        0.5161162614822388,
        -0.36983397603034973,
        0.2627313733100891,
        0.7265115976333618
      ],
      "type": "VEC4"
    },
    {
      "bufferView": 5,
      "byteOffset": 16056,
      "componentType": 5126,
      "count": 28,
      "max": [
        1.0
      ],
      "min": [
        0.0
      ],
      "type": "SCALAR"
    },
    {
      "bufferView": 6,
      "byteOffset": 11160,
      "componentType": 5126,
      "count": 28,
      "max": [
        2.2205544694675616e-15,
        0.4108245372772217,
        -7.450010386378381e-09
      ],
      "min": [
        2.220229208815816e-15,
        0.4108245372772217,
        -7.4500112745568e-09
      ],
      "type": "VEC3"
    },
    {
      "bufferView": 5,
      "byteOffset": 16168,
      "componentType": 5126,
      "count": 31,
      "max": [
        1.0
      ],
      "min": [
        0.0
      ],
      "type": "SCALAR"
    },
    {
      "bufferView": 7,
      "byteOffset": 49344,
      "componentType": 5126,
      "count": 31,
      "max": [
        -0.0176417026668787,
        -4.472981629533024e-08,
        1.0737265521143513e-09,
        0.9998443722724915
      ],
      "min": [
        -0.0176417026668787,
        -4.472981629533024e-08,
        1.0737265521143513e-09,
        0.9998443722724915
      ],
      "type": "VEC4"
    },
    {
      "bufferView": 5,
      "byteOffset": 16292,
      "componentType": 5126,
      "count": 29,
      "max": [
        1.0
      ],
      "min": [
        0.0
      ],
      "type": "SCALAR"
    },
    {
      "bufferView": 7,
      "byteOffset": 49840,
      "componentType": 5126,
      "count": 29,
      "max": [
        0.9504518508911133,
        -0.009931087493896484,
        -0.3092100918292999,
        -0.030525756999850273
      ],
      "min": [
        0.9504518508911133,
        -0.009931087493896484,
        -0.3092100918292999,
        -0.030525756999850273
      ],
      "type": "VEC4"
    },
    {
      "bufferView": 5,
      "byteOffset": 16408,
      "componentType": 5126,
      "count": 49,
      "max": [
        1.0
      ],
      "min": [
        0.0
      ],
      "type": "SCALAR"
    },
    {
      "bufferView": 6,
      "byteOffset": 11496,
      "componentType": 5126,
      "count": 49,
      "max": [
        8.369748627501394e-08,
        -1.9434666633605957,
        0.25875553488731384
      ],
      "min": [
        8.369748627501394e-08,
        -1.9584274291992188,
        0.013724667951464653
      ],
      "type": "VEC3"
    },
    {
      "bufferView": 5,
      "byteOffset": 16604,
      "componentType": 5126,
      "count": 49,
      "max": [
        1.0
      ],
      "min": [
        0.0
      ],
      "type": "SCALAR"
    },
    {
      "bufferView": 7,
      "byteOffset": 50304,
      "componentType": 5126,
      "count": 49,
      "max": [
        0.008757776580750942,
        -0.3084164261817932,
        0.014972693286836147,
        0.9512481093406677
      ],
      "min": [
        -0.046022575348615646,
        -0.30930057168006897,
        -0.0028571677394211292,
        0.9498265385627747
      ],
      "type": "VEC4"
    },
    {
      "bufferView": 5,
      "byteOffset": 16800,
      "componentType": 5126,
      "count": 42,
      "max": [
        1.0
      ],
      "min": [
        0.0
      ],
      "type": "SCALAR"
    },
    {
      "bufferView": 6,
      "byteOffset": 12084,
      "componentType": 5126,
      "count": 42,
      "max": [
        -5.142480885567124e-10,
        0.6737644672393799,
        9.411541412873703e-08
      ],
      "min": [
        -5.142483106013174e-10,
        0.6737644672393799,
        9.411541412873703e-08
      ],
      "type": "VEC3"
    },
    {
      "bufferView": 5,
      "byteOffset": 16968,
      "componentType": 5126,
      "count": 48,
      "max": [
        1.0
      ],
      "min": [
        0.0
      ],
      "type": "SCALAR"
    },
    {
      "bufferView": 7,
      "byteOffset": 51088,
      "componentType": 5126,
      "count": 48,
      "max": [
        1.869139282462129e-06,
        0.760667622089386,
        0.8199714422225952,
        9.450571383240458e-07
      ],
      "min": [
        -1.9646129203465534e-06,
        -0.6879578828811646,
        -0.7038660645484924,
        -1.2707913583653863e-06
      ],
      "type": "VEC4"
    },
    {
      "bufferView": 5,
      "byteOffset": 17160,
      "componentType": 5126,
      "count": 31,
      "max": [
        1.0
      ],
      "min": [
        0.0
      ],
      "type": "SCALAR"
    },
    {
      "bufferView": 7,
      "byteOffset": 51856,
      "componentType": 5126,
      "count": 31,
      "max": [
        -0.05597977712750435,
        -0.00034985708771273494,
        -0.006239813286811113,
        0.9984123706817627
      ],
      "min": [
        -0.05597977712750435,
        -0.00034985708771273494,
        -0.006239813286811113,
        0.9984123706817627
      ],
      "type": "VEC4"
    },
    {
      "bufferView": 5,
      "byteOffset": 17284,
      "componentType": 5126,
      "count": 49,
      "max": [
        1.0
      ],
      "min": [
        0.0
      ],
      "type": "SCALAR"
    },
    {
      "bufferView": 7,
      "byteOffset": 52352,
      "componentType": 5126,
      "count": 49,
      "max": [
        0.2845655083656311,
        0.0007952843443490565,
        -0.0002380866790190339,
        0.9999996423721313
      ],
      "min": [
        -0.007504142355173826,
        -0.002994691953063011,
        -0.00046098168240860105,
        0.9586519002914429
      ],
      "type": "VEC4"
    },
    {
      "bufferView": 5,
      "byteOffset": 17480,
      "componentType": 5126,
      "count": 5,
      "max": [
        1.0
      ],
      "min": [
        0.0
      ],
      "type": "SCALAR"
    },
    {
      "bufferView": 6,
      "byteOffset": 12588,
      "componentType": 5126,
      "count": 5,
      "max": [
        1.862645149230957e-09,
        0.6007513999938965,
        -5.6824784877562706e-08
      ],
      "min": [
        1.8626450382086546e-09,
        0.6007513999938965,
        -5.6824784877562706e-08
      ],
      "type": "VEC3"
    },
    {
      "bufferView": 5,
      "byteOffset": 17500,
      "componentType": 5126,
      "count": 49,
      "max": [
        1.0
      ],
      "min": [
        0.0
      ],
      "type": "SCALAR"
    },
    {
      "bufferView": 7,
      "byteOffset": 53136,
      "componentType": 5126,
      "count": 49,
      "max": [
        -0.19559629261493683,
        0.6895573735237122,
        -0.049744099378585815,
        0.6986396908760071
      ],
      "min": [
        -0.47211334109306335,
        0.6007133722305298,
        -0.3358393907546997,
        0.5469416379928589
      ],
      "type": "VEC4"
    },
    {
      "bufferView": 5,
      "byteOffset": 17696,
      "componentType": 5126,
      "count": 48,
      "max": [
        1.0
      ],
      "min": [
        0.0
      ],
      "type": "SCALAR"
    },
    {
      "bufferView": 7,
      "byteOffset": 53920,
      "componentType": 5126,
      "count": 48,
      "max": [
        1.6471889239255688e-06,
        0.7783845067024231,
        0.8068866729736328,
        1.271064661523269e-06
      ],
      "min": [
        -1.7867070027932641e-06,
        -0.7003144025802612,
        -0.7020590901374817,
        -1.5215042594718398e-06
      ],
      "type": "VEC4"
    },
    {
      "bufferView": 5,
      "byteOffset": 17888,
      "componentType": 5126,
      "count": 31,
      "max": [
        1.0
      ],
      "min": [
        0.0
      ],
      "type": "SCALAR"
    },
    {
      "bufferView": 7,
      "byteOffset": 54688,
      "componentType": 5126,
      "count": 31,
      "max": [
        -0.05598519742488861,
        1.1902231733529334e-07,
        -6.673956498559619e-09,
        0.9984316229820251
      ],
      "min": [
        -0.05598519742488861,
        1.1902231733529334e-07,
        -6.673956498559619e-09,
        0.9984316229820251
      ],
      "type": "VEC4"
    },
    {
      "bufferView": 5,
      "byteOffset": 18012,
      "componentType": 5126,
      "count": 34,
      "max": [
        1.0
      ],
      "min": [
        0.0
      ],
      "type": "SCALAR"
    },
    {
      "bufferView": 6,
      "byteOffset": 12648,
      "componentType": 5126,
      "count": 34,
      "max": [
        1.406837402129213e-08,
        2.0407791137695313,
        1.2595671172732636e-09
      ],
      "min": [
        1.406837402129213e-08,
        2.0407791137695313,
        1.259566229094844e-09
      ],
      "type": "VEC3"
    },
    {
      "bufferView": 5,
      "byteOffset": 18148,
      "componentType": 5126,
      "count": 49,
      "max": [
        1.0
      ],
      "min": [
        0.0
      ],
      "type": "SCALAR"
    },
    {
      "bufferView": 7,
      "byteOffset": 55184,
      "componentType": 5126,
      "count": 49,
      "max": [
        0.2556968927383423,
        8.76444250508257e-09,
        3.5877945059326066e-09,
        0.999999463558197
      ],
      "min": [
        -0.0025071208365261555,
        8.113297589318336e-09,
        1.3720112823634167e-09,
        0.9667569994926453
      ],
      "type": "VEC4"
    },
    {
      "bufferView": 5,
      "byteOffset": 18344,
      "componentType": 5126,
      "count": 49,
      "max": [
        1.0
      ],
      "min": [
        0.0
      ],
      "type": "SCALAR"
    },
    {
      "bufferView": 7,
      "byteOffset": 55968,
      "componentType": 5126,
      "count": 49,
      "max": [
        -0.21953336894512177,
        -0.5905563235282898,
        0.35334083437919617,
        0.691519021987915
      ],
      "min": [
        -0.5073102712631226,
        -0.686394453048706,
        0.049691036343574524,
        0.5186807513237
      ],
      "type": "VEC4"
    },
    {
      "bufferView": 5,
      "byteOffset": 18540,
      "componentType": 5126,
      "count": 49,
      "max": [
        1.0
      ],
      "min": [
        0.0
      ],
      "type": "SCALAR"
    },
    {
      "bufferView": 6,
      "byteOffset": 13056,
      "componentType": 5126,
      "count": 49,
      "max": [
        -4.371138828673793e-08,
        1.3435884227419592e-07,
        -0.09446769952774048
      ],
      "min": [
        -4.371138828673793e-08,
        1.3435884227419592e-07,
        -0.2974081039428711
      ],
      "type": "VEC3"
    }
  ],
  "animations": [
    {
      "channels": [
        {
          "sampler": 0,
          "target": {
            "node": 12,
            "path": "rotation"
          }
        },
        {
          "sampler": 1,
          "target": {
            "node": 11,
            "path": "rotation"
          }
        },
        {
          "sampler": 2,
          "target": {
            "node": 10,
            "path": "rotation"
          }
        },
        {
          "sampler": 3,
          "target": {
            "node": 9,
            "path": "rotation"
          }
        },
        {
          "sampler": 4,
          "target": {
            "node": 17,
            "path": "rotation"
          }
        },
        {
          "sampler": 5,
          "target": {
            "node": 16,
            "path": "rotation"
          }
        },
        {
          "sampler": 6,
          "target": {
            "node": 15,
            "path": "translation"
          }
        },
        {
          "sampler": 7,
          "target": {
            "node": 15,
            "path": "rotation"
          }
        },
        {
          "sampler": 8,
          "target": {
            "node": 14,
            "path": "rotation"
          }
        },
        {
          "sampler": 9,
          "target": {
            "node": 20,
            "path": "translation"
          }
        },
        {
          "sampler": 10,
          "target": {
            "node": 20,
            "path": "rotation"
          }
        },
        {
          "sampler": 11,
          "target": {
            "node": 19,
            "path": "rotation"
          }
        },
        {
          "sampler": 12,
          "target": {
            "node": 8,
            "path": "translation"
          }
        },
        {
          "sampler": 13,
          "target": {
            "node": 8,
            "path": "rotation"
          }
        },
        {
          "sampler": 14,
          "target": {
            "node": 26,
            "path": "translation"
          }
        },
        {
          "sampler": 15,
          "target": {
            "node": 26,
            "path": "rotation"
          }
        },
        {
          "sampler": 16,
          "target": {
            "node": 24,
            "path": "rotation"
          }
        },
        {
          "sampler": 17,
          "target": {
            "node": 23,
            "path": "rotation"
          }
        },
        {
          "sampler": 18,
          "target": {
            "node": 32,
            "path": "rotation"
          }
        },
        {
          "sampler": 19,
          "target": {
            "node": 30,
            "path": "rotation"
          }
        },
        {
          "sampler": 20,
          "target": {
            "node": 29,
            "path": "rotation"
          }
        }
      ],
      "name": "Armature|anim.idle",
      "samplers": [
        {
          "input": 26,
          "interpolation": "LINEAR",
          "output": 27
        },
        {
          "input": 28,
          "interpolation": "LINEAR",
          "output": 29
        },
        {
          "input": 30,
          "interpolation": "LINEAR",
          "output": 31
        },
        {
          "input": 32,
          "interpolation": "LINEAR",
          "output": 33
        },
        {
          "input": 34,
          "interpolation": "LINEAR",
          "output": 35
        },
        {
          "input": 36,
          "interpolation": "LINEAR",
          "output": 37
        },
        {
          "input": 38,
          "interpolation": "LINEAR",
          "output": 39
        },
        {
          "input": 40,
          "interpolation": "LINEAR",
          "output": 41
        },
        {
          "input": 42,
          "interpolation": "LINEAR",
          "output": 43
        },
        {
          "input": 44,
          "interpolation": "LINEAR",
          "output": 45
        },
        {
          "input": 46,
          "interpolation": "LINEAR",
          "output": 47
        },
        {
          "input": 48,
          "interpolation": "LINEAR",
          "output": 49
        },
        {
          "input": 50,
          "interpolation": "LINEAR",
          "output": 51
        },
        {
          "input": 52,
          "interpolation": "LINEAR",
          "output": 53
        },
        {
          "input": 54,
          "interpolation": "LINEAR",
          "output": 55
        },
        {
          "input": 56,
          "interpolation": "LINEAR",
          "output": 57
        },
        {
          "input": 58,
          "interpolation": "LINEAR",
          "output": 59
        },
        {
          "input": 60,
          "interpolation": "LINEAR",
          "output": 61
        },
        {
          "input": 62,
          "interpolation": "LINEAR",
          "output": 63
        },
        {
          "input": 64,
          "interpolation": "LINEAR",
          "output": 65
        },
        {
          "input": 66,
          "interpolation": "LINEAR",
          "output": 67
        }
      ]
    },
    {
      "channels": [
        {
          "sampler": 0,
          "target": {
            "node": 12,
            "path": "rotation"
          }
        },
        {
          "sampler": 1,
          "target": {
            "node": 11,
            "path": "rotation"
          }
        },
        {
          "sampler": 2,
          "target": {
            "node": 10,
            "path": "rotation"
          }
        },
        {
          "sampler": 3,
          "target": {
            "node": 9,
            "path": "translation"
          }
        },
        {
          "sampler": 4,
          "target": {
            "node": 9,
            "path": "rotation"
          }
        },
        {
          "sampler": 5,
          "target": {
            "node": 17,
            "path": "translation"
          }
        },
        {
          "sampler": 6,
          "target": {
            "node": 17,
            "path": "rotation"
          }
        },
        {
          "sampler": 7,
          "target": {
            "node": 16,
            "path": "rotation"
          }
        },
        {
          "sampler": 8,
          "target": {
            "node": 15,
            "path": "rotation"
          }
        },
        {
          "sampler": 9,
          "target": {
            "node": 14,
            "path": "translation"
          }
        },
        {
          "sampler": 10,
          "target": {
            "node": 14,
            "path": "rotation"
          }
        },
        {
          "sampler": 11,
          "target": {
            "node": 20,
            "path": "translation"
          }
        },
        {
          "sampler": 12,
          "target": {
            "node": 20,
            "path": "rotation"
          }
        },
        {
          "sampler": 13,
          "target": {
            "node": 19,
            "path": "translation"
          }
        },
        {
          "sampler": 14,
          "target": {
            "node": 19,
            "path": "rotation"
          }
        },
        {
          "sampler": 15,
          "target": {
            "node": 8,
            "path": "translation"
          }
        },
        {
          "sampler": 16,
          "target": {
            "node": 8,
            "path": "rotation"
          }
        },
        {
          "sampler": 17,
          "target": {
            "node": 26,
            "path": "rotation"
          }
        },
        {
          "sampler": 18,
          "target": {
            "node": 25,
            "path": "rotation"
          }
        },
        {
          "sampler": 19,
          "target": {
            "node": 24,
            "path": "translation"
          }
        },
        {
          "sampler": 20,
          "target": {
            "node": 24,
            "path": "rotation"
          }
        },
        {
          "sampler": 21,
          "target": {
            "node": 23,
            "path": "rotation"
          }
        },
        {
          "sampler": 22,
          "target": {
            "node": 22,
            "path": "translation"
          }
        },
        {
          "sampler": 23,
          "target": {
            "node": 32,
            "path": "rotation"
          }
        },
        {
          "sampler": 24,
          "target": {
            "node": 31,
            "path": "rotation"
          }
        },
        {
          "sampler": 25,
          "target": {
            "node": 30,
            "path": "rotation"
          }
        },
        {
          "sampler": 26,
          "target": {
            "node": 29,
            "path": "translation"
          }
        },
        {
          "sampler": 27,
          "target": {
            "node": 29,
            "path": "rotation"
          }
        },
        {
          "sampler": 28,
          "target": {
            "node": 28,
            "path": "translation"
          }
        },
        {
          "sampler": 29,
          "target": {
            "node": 7,
            "path": "translation"
          }
        },
        {
          "sampler": 30,
          "target": {
            "node": 7,
            "path": "rotation"
          }
        }
      ],
      "name": "Armature|anim.run",
      "samplers": [
        {
          "input": 68,
          "interpolation": "LINEAR",
          "output": 69
        },
        {
          "input": 70,
          "interpolation": "LINEAR",
          "output": 71
        },
        {
          "input": 72,
          "interpolation": "LINEAR",
          "output": 73
        },
        {
          "input": 74,
          "interpolation": "LINEAR",
          "output": 75
        },
        {
          "input": 76,
          "interpolation": "LINEAR",
          "output": 77
        },
        {
          "input": 78,
          "interpolation": "LINEAR",
          "output": 79
        },
        {
          "input": 80,
          "interpolation": "LINEAR",
          "output": 81
        },
        {
          "input": 82,
          "interpolation": "LINEAR",
          "output": 83
        },
        {
          "input": 84,
          "interpolation": "LINEAR",
          "output": 85
        },
        {
          "input": 86,
          "interpolation": "LINEAR",
          "output": 87
        },
        {
          "input": 88,
          "interpolation": "LINEAR",
          "output": 89
        },
        {
          "input": 90,
          "interpolation": "LINEAR",
          "output": 91
        },
        {
          "input": 92,
          "interpolation": "LINEAR",
          "output": 93
        },
        {
          "input": 94,
          "interpolation": "LINEAR",
          "output": 95
        },
        {
          "input": 96,
          "interpolation": "LINEAR",
          "output": 97
        },
        {
          "input": 98,
          "interpolation": "LINEAR",
          "output": 99
        },
        {
          "input": 100,
          "interpolation": "LINEAR",
          "output": 101
        },
        {
          "input": 102,
          "interpolation": "LINEAR",
          "output": 103
        },
        {
          "input": 104,
          "interpolation": "LINEAR",
          "output": 105
        },
        {
          "input": 106,
          "interpolation": "LINEAR",
          "output": 107
        },
        {
          "input": 108,
          "interpolation": "LINEAR",
          "output": 109
        },
        {
          "input": 110,
          "interpolation": "LINEAR",
          "output": 111
        },
        {
          "input": 112,
          "interpolation": "LINEAR",
          "output": 113
        },
        {
          "input": 114,
          "interpolation": "LINEAR",
          "output": 115
        },
        {
          "input": 116,
          "interpolation": "LINEAR",
          "output": 117
        },
        {
          "input": 118,
          "interpolation": "LINEAR",
          "output": 119
        },
        {
          "input": 120,
          "interpolation": "LINEAR",
          "output": 121
        },
        {
          "input": 122,
          "interpolation": "LINEAR",
          "output": 123
        },
        {
          "input": 124,
          "interpolation": "LINEAR",
          "output": 125
        },
        {
          "input": 126,
          "interpolation": "LINEAR",
          "output": 127
        },
        {
          "input": 128,
          "interpolation": "LINEAR",
          "output": 129
        }
      ]
    },
    {
      "channels": [
        {
          "sampler": 0,
          "target": {
            "node": 12,
            "path": "rotation"
          }
        },
        {
          "sampler": 1,
          "target": {
            "node": 11,
            "path": "translation"
          }
        },
        {
          "sampler": 2,
          "target": {
            "node": 11,
            "path": "rotation"
          }
        },
        {
          "sampler": 3,
          "target": {
            "node": 10,
            "path": "rotation"
          }
        },
        {
          "sampler": 4,
          "target": {
            "node": 9,
            "path": "rotation"
          }
        },
        {
          "sampler": 5,
          "target": {
            "node": 17,
            "path": "translation"
          }
        },
        {
          "sampler": 6,
          "target": {
            "node": 17,
            "path": "rotation"
          }
        },
        {
          "sampler": 7,
          "target": {
            "node": 16,
            "path": "rotation"
          }
        },
        {
          "sampler": 8,
          "target": {
            "node": 15,
            "path": "rotation"
          }
        },
        {
          "sampler": 9,
          "target": {
            "node": 14,
            "path": "rotation"
          }
        },
        {
          "sampler": 10,
          "target": {
            "node": 20,
            "path": "translation"
          }
        },
        {
          "sampler": 11,
          "target": {
            "node": 20,
            "path": "rotation"
          }
        },
        {
          "sampler": 12,
          "target": {
            "node": 19,
            "path": "rotation"
          }
        },
        {
          "sampler": 13,
          "target": {
            "node": 8,
            "path": "translation"
          }
        },
        {
          "sampler": 14,
          "target": {
            "node": 8,
            "path": "rotation"
          }
        },
        {
          "sampler": 15,
          "target": {
            "node": 26,
            "path": "translation"
          }
        },
        {
          "sampler": 16,
          "target": {
            "node": 26,
            "path": "rotation"
          }
        },
        {
          "sampler": 17,
          "target": {
            "node": 25,
            "path": "rotation"
          }
        },
        {
          "sampler": 18,
          "target": {
            "node": 24,
            "path": "rotation"
          }
        },
        {
          "sampler": 19,
          "target": {
            "node": 23,
            "path": "translation"
          }
        },
        {
          "sampler": 20,
          "target": {
            "node": 23,
            "path": "rotation"
          }
        },
        {
          "sampler": 21,
          "target": {
            "node": 32,
            "path": "rotation"
          }
        },
        {
          "sampler": 22,
          "target": {
            "node": 31,
            "path": "rotation"
          }
        },
        {
          "sampler": 23,
          "target": {
            "node": 30,
            "path": "translation"
          }
        },
        {
          "sampler": 24,
          "target": {
            "node": 30,
            "path": "rotation"
          }
        },
        {
          "sampler": 25,
          "target": {
            "node": 29,
            "path": "rotation"
          }
        },
        {
          "sampler": 26,
          "target": {
            "node": 7,
            "path": "translation"
          }
        }
      ],
      "name": "Armature|anim.walk",
      "samplers": [
        {
          "input": 130,
          "interpolation": "LINEAR",
          "output": 131
        },
        {
          "input": 132,
          "interpolation": "LINEAR",
          "output": 133
        },
        {
          "input": 134,
          "interpolation": "LINEAR",
          "output": 135
        },
        {
          "input": 136,
          "interpolation": "LINEAR",
          "output": 137
        },
        {
          "input": 138,
          "interpolation": "LINEAR",
          "output": 139
        },
        {
          "input": 140,
          "interpolation": "LINEAR",
          "output": 141
        },
        {
          "input": 142,
          "interpolation": "LINEAR",
          "output": 143
        },
        {
          "input": 144,
          "interpolation": "LINEAR",
          "output": 145
        },
        {
          "input": 146,
          "interpolation": "LINEAR",
          "output": 147
        },
        {
          "input": 148,
          "interpolation": "LINEAR",
          "output": 149
        },
        {
          "input": 150,
          "interpolation": "LINEAR",
          "output": 151
        },
        {
          "input": 152,
          "interpolation": "LINEAR",
          "output": 153
        },
        {
          "input": 154,
          "interpolation": "LINEAR",
          "output": 155
        },
        {
          "input": 156,
          "interpolation": "LINEAR",
          "output": 157
        },
        {
          "input": 158,
          "interpolation": "LINEAR",
          "output": 159
        },
        {
          "input": 160,
          "interpolation": "LINEAR",
          "output": 161
        },
        {
          "input": 162,
          "interpolation": "LINEAR",
          "output": 163
        },
        {
          "input": 164,
          "interpolation": "LINEAR",
          "output": 165
        },
        {
          "input": 166,
          "interpolation": "LINEAR",
          "output": 167
        },
        {
          "input": 168,
          "interpolation": "LINEAR",
          "output": 169
        },
        {
          "input": 170,
          "interpolation": "LINEAR",
          "output": 171
        },
        {
          "input": 172,
          "interpolation": "LINEAR",
          "output": 173
        },
        {
          "input": 174,
          "interpolation": "LINEAR",
          "output": 175
        },
        {
          "input": 176,
          "interpolation": "LINEAR",
          "output": 177
        },
        {
          "input": 178,
          "interpolation": "LINEAR",
          "output": 179
        },
        {
          "input": 180,
          "interpolation": "LINEAR",
          "output": 181
        },
        {
          "input": 182,
          "interpolation": "LINEAR",
          "output": 183
        }
      ]
    }
  ],
  "asset": {
    "extras": {
      "author": "NorTEEN_X (https://sketchfab.com/norten77077)",
      "license": "CC-BY-4.0 (http://creativecommons.org/licenses/by/4.0/)",
      "source": "https://sketchfab.com/3d-models/low-poly-guy-rigged-49596042a3fb44b59a65cae49612303d",
      "title": "Low Poly Guy + Rigged"
    },
    "generator": "Sketchfab-15.1.0",
    "version": "2.0"
  },
  "bufferViews": [
    {
      "buffer": 0,
      "byteLength": 7248,
      "byteStride": 8,
      "name": "shortBufferViews",
      "target": 34962
    },
    {
      "buffer": 0,
      "byteLength": 5520,
      "byteOffset": 7248,
      "name": "floatBufferViews",
      "target": 34963
    },
    {
      "buffer": 0,
      "byteLength": 21744,
      "byteOffset": 12768,
      "byteStride": 12,
      "name": "floatBufferViews",
      "target": 34962
    },
    {
      "buffer": 0,
      "byteLength": 14496,
      "byteOffset": 34512,
      "byteStride": 16,
      "name": "floatBufferViews",
      "target": 34962
    },
    {
      "buffer": 0,
      "byteLength": 1792,
      "byteOffset": 49008,
      "name": "floatBufferViews"
    },
    {
      "buffer": 0,
      "byteLength": 18736,
      "byteOffset": 50800,
      "name": "floatBufferViews"
    },
    {
      "buffer": 0,
      "byteLength": 13644,
      "byteOffset": 69536,
      "byteStride": 12,
      "name": "floatBufferViews"
    },
    {
      "buffer": 0,
      "byteLength": 56752,
      "byteOffset": 83180,
      "byteStride": 16,
      "name": "floatBufferViews"
    }
  ],
  "buffers": [
    {
      "byteLength": 139932,
      "uri": "scene.bin"
    }
  ],
  "extensionsRequired": [
    "KHR_materials_pbrSpecularGlossiness"
  ],
  "extensionsUsed": [
    "KHR_materials_pbrSpecularGlossiness"
  ],
  "materials": [
    {
      "doubleSided": true,
      "extensions": {
        "KHR_materials_pbrSpecularGlossiness": {
          "diffuseFactor": [
            0.7999999999999999,
            0.3098670000000001,
            0.06294610000000003,
            1.0
          ],
          "glossinessFactor": 0.0,
          "specularFactor": [
            0.0,
            0.0,
            0.0
          ]
        }
      },
      "name": "Material.004"
    },
    {
      "doubleSided": true,
      "extensions": {
        "KHR_materials_pbrSpecularGlossiness": {
          "diffuseFactor": [
            1.0,
            0.754507,
            0.658326,
            1.0
          ],
          "glossinessFactor": 0.17883055248039195,
          "specularFactor": [
            0.0,
            0.0,
            0.0
          ]
        }
      },
      "name": "Material.001"
    },
    {
      "doubleSided": true,
      "extensions": {
        "KHR_materials_pbrSpecularGlossiness": {
          "diffuseFactor": [
            0.21497500000000003,
            0.48721699999999984,
            0.7999999999999999,
            1.0
          ],
          "glossinessFactor": 1.0,
          "specularFactor": [
            0.0,
            0.0,
            0.0
          ]
        }
      },
      "name": "Material.003"
    },
    {
      "doubleSided": true,
      "extensions": {
        "KHR_materials_pbrSpecularGlossiness": {
          "diffuseFactor": [
            0.0,
            0.0,
            0.0,
            1.0
          ],
          "glossinessFactor": 1.0,
          "specularFactor": [
            0.00457144250344382,
            0.00457144250344382,
            0.00457144250344382
          ]
        }
      },
      "name": "Material.002"
    },
    {
      "doubleSided": true,
      "extensions": {
        "KHR_materials_pbrSpecularGlossiness": {
          "diffuseFactor": [
            0.167948,
            0.0906205,
            0.0167239,
            1.0
          ],
          "glossinessFactor": 0.022746399707790094,
          "specularFactor": [
            0.0,
            0.0,
            0.0
          ]
        }
      },
      "name": "Material.005"
    }
  ],
  "meshes": [
    {
      "name": "Cube_Material.004_0",
      "primitives": [
        {
          "attributes": {
            "JOINTS_0": 16,
            "NORMAL": 1,
            "POSITION": 0,
            "WEIGHTS_0": 17
          },
          "indices": 2,
          "material": 0,
          "mode": 4
        }
      ]
    },
    {
      "name": "Cube_Material.001_0",
      "primitives": [
        {
          "attributes": {
            "JOINTS_0": 18,
            "NORMAL": 4,
            "POSITION": 3,
            "WEIGHTS_0": 19
          },
          "indices": 5,
          "material": 1,
          "mode": 4
        }
      ]
    },
    {
      "name": "Cube_Material.003_0",
      "primitives": [
        {
          "attributes": {
            "JOINTS_0": 20,
            "NORMAL": 7,
            "POSITION": 6,
            "WEIGHTS_0": 21
          },
          "indices": 8,
          "material": 2,
          "mode": 4
        }
      ]
    },
    {
      "name": "Cube_Material.002_0",
      "primitives": [
        {
          "attributes": {
            "JOINTS_0": 22,
            "NORMAL": 10,
            "POSITION": 9,
            "WEIGHTS_0": 23
          },
          "indices": 11,
          "material": 3,
          "mode": 4
        }
      ]
    },
    {
      "name": "Cube_Material.005_0",
      "primitives": [
        {
          "attributes": {
            "JOINTS_0": 24,
            "NORMAL": 13,
            "POSITION": 12,
            "WEIGHTS_0": 25
          },
          "indices": 14,
          "material": 4,
          "mode": 4
        }
      ]
    }
  ],
  "nodes": [
    {
      "children": [
        1
      ],
      "matrix": [
        1.0,
        0.0,
        0.0,
        0.0,
        0.0,
        3.828568672208042e-16,
        -1.0,
        0.0,
        0.0,
        1.0,
        3.828568672208042e-16,
        0.0,
        0.0,
        0.0,
        0.0,
        1.0
      ],
      "name": "Sketchfab_model"
    },
    {
      "children": [
        2
      ],
      "matrix": [
        0.009999999776482582,
        0.0,
        0.0,
        0.0,
        0.0,
        0.0,
        0.009999999776482582,
        0.0,
        0.0,
        -0.009999999776482582,
        0.0,
        0.0,
        0.0,
        0.0,
        0.0,
        1.0
      ],
      "name": "low poly guy.fbx"
    },
    {
      "children": [
        3
      ],
      "name": "Object_2"
    },
    {
      "children": [
        4,
        40,
        41,
        42,
        43,
        44,
        47
      ],
      "name": "RootNode"
    },
    {
      "children": [
        5
      ],
      "name": "Armature",
      "rotation": [
        -0.7071068286895752,
        0.0,
        0.0,
        0.7071067094802856
      ],
      "scale": [
        100.0,
        100.0,
        100.0
      ],
      "translation": [
        0.0,
        600.7506103515625,
        0.0
      ]
    },
    {
      "children": [
        6,
        35,
        36,
        37,
        38,
        39,
        34
      ],
      "name": "Object_5"
    },
    {
      "children": [
        7
      ],
      "name": "_rootJoint"
    },
    {
      "children": [
        8,
        22,
        28
      ],
      "name": "Bone.001_01",
      "rotation": [
        -0.6824914813041687,
        -0.0,
        0.0,
        0.7308935523033142
      ],
      "translation": [
        -4.371138828673793e-08,
        1.3435884227419592e-07,
        -0.24598687887191772
      ]
    },
    {
      "children": [
        9,
        14,
        19
      ],
      "name": "Bone_02",
      "rotation": [
        -0.03254631161689758,
        -0.3091913163661957,
        0.010588415898382664,
        0.9503837823867798
      ],
      "translation": [
        8.742277657347586e-08,
        -1.9520313739776611,
        0.13385336101055145
      ]
    },
    {
      "children": [
        10
      ],
      "name": "Bone.006_03",
      "rotation": [
        0.26372650265693665,
        0.7251185774803162,
        -0.5180715322494507,
        0.36912500858306885
      ],
      "scale": [
        1.0,
        0.9999998807907104,
        0.9999998807907104
      ],
      "translation": [
        -1.2329433474178586e-08,
        -1.4210854715202004e-14,
        -1.686730044525575e-08
      ]
    },
    {
      "children": [
        11
      ],
      "name": "Bone.007_04",
      "rotation": [
        -0.4989875257015228,
        9.051665017523192e-08,
        2.6053703194861555e-08,
        0.8666091561317444
      ],
      "scale": [
        1.0,
        1.0,
        0.9999999403953552
      ],
      "translation": [
        2.1316282072803006e-14,
        1.0400885343551636,
        -3.552713678800501e-14
      ]
    },
    {
      "children": [
        12
      ],
      "name": "Bone.008_05",
      "rotation": [
        -0.0248529314994812,
        1.9524366123846448e-08,
        9.077210094687871e-10,
        0.9996911287307739
      ],
      "scale": [
        1.0,
        0.9999999403953552,
        0.9999998807907104
      ],
      "translation": [
        1.509903313490213e-14,
        1.1029876470565796,
        1.8626465703164286e-08
      ]
    },
    {
      "children": [
        13
      ],
      "name": "Bone.009_00",
      "rotation": [
        0.01639559119939804,
        -8.008357355038243e-08,
        -1.5918296680794697e-09,
        0.9998655915260315
      ],
      "translation": [
        0.0,
        1.6401399374008179,
        5.960467319710006e-08
      ]
    },
    {
      "name": "Bone.009_end_088",
      "rotation": [
        1.4544118187172873e-17,
        1.6543612251060553e-23,
        -1.3234889800848443e-23,
        1.0
      ],
      "translation": [
        2.117582368135751e-22,
        0.5649319291114807,
        0.0
      ]
    },
    {
      "children": [
        15
      ],
      "name": "Bone.010_06",
      "rotation": [
        0.5161162614822388,
        -0.36983397603034973,
        0.2627313733100891,
        0.7265115976333618
      ],
      "scale": [
        1.0000001192092896,
        1.0000001192092896,
        1.0
      ],
      "translation": [
        -1.2329433474178586e-08,
        -1.4210854715202004e-14,
        -1.686730044525575e-08
      ]
    },
    {
      "children": [
        16
      ],
      "name": "Bone.012_07",
      "rotation": [
        -0.478903591632843,
        -2.3757804612500877e-08,
        1.8965411185956071e-10,
        0.8778675198554993
      ],
      "scale": [
        1.0,
        0.9999998807907104,
        0.9999999403953552
      ],
      "translation": [
        -3.552713678800501e-15,
        1.0516753196716309,
        -2.086162567138672e-07
      ]
    },
    {
      "children": [
        17
      ],
      "name": "Bone.013_08",
      "rotation": [
        -0.033423542976379395,
        1.3572321932997511e-08,
        -1.0444572984269485e-09,
        0.999441385269165
      ],
      "translation": [
        8.88178631458362e-16,
        1.085541009902954,
        2.9802318834981634e-08
      ]
    },
    {
      "children": [
        18
      ],
      "name": "Bone.014_09",
      "rotation": [
        0.008240985684096813,
        2.2739829574902615e-08,
        -4.8214032766225046e-09,
        0.9999661445617676
      ],
      "scale": [
        1.0,
        1.0000001192092896,
        1.0000001192092896
      ],
      "translation": [
        -1.2434497875801753e-14,
        1.6583586931228638,
        1.1920928244535389e-07
      ]
    },
    {
      "name": "Bone.014_end_089",
      "rotation": [
        2.0365807066514956e-17,
        -1.3234889800848443e-23,
        2.6953975961287856e-40,
        1.0
      ],
      "translation": [
        -2.117582368135751e-22,
        0.5739693641662598,
        0.0
      ]
    },
    {
      "children": [
        20
      ],
      "name": "Bone.019_010",
      "rotation": [
        0.9504519104957581,
        -0.009931088425219059,
        -0.3092101514339447,
        -0.030525755137205124
      ],
      "scale": [
        0.9999955296516418,
        0.9999999403953552,
        0.9999912977218628
      ],
      "translation": [
        -1.2329433474178586e-08,
        -1.4210854715202004e-14,
        -1.686730044525575e-08
      ]
    },
    {
      "children": [
        21
      ],
      "name": "Bone.020_011",
      "rotation": [
        -0.01764170452952385,
        -4.4729592474368474e-08,
        1.0737177813524568e-09,
        0.9998443722724915
      ],
      "translation": [
        2.886579864025407e-15,
        0.4108246862888336,
        -5.587351026292708e-09
      ]
    },
    {
      "name": "Bone.020_end_090",
      "rotation": [
        -5.204170427930421e-18,
        1.3775324423698682e-40,
        -2.6469779601696886e-23,
        1.0
      ],
      "translation": [
        4.235164736271502e-22,
        1.2760207653045654,
        -2.7755575615628914e-17
      ]
    },
    {
      "children": [
        23
      ],
      "name": "Bone.002_012",
      "rotation": [
        0.27485448122024536,
        -0.6324629783630371,
        0.27199041843414307,
        0.671168327331543
      ],
      "translation": [
        0.0,
        0.9588616490364075,
        0.0
      ]
    },
    {
      "children": [
        24
      ],
      "name": "Bone.003_013",
      "rotation": [
        -0.29338201880455017,
        0.6433715224266052,
        -0.2457701563835144,
        0.6630212068557739
      ],
      "scale": [
        1.0,
        0.9999999403953552,
        1.0
      ],
      "translation": [
        1.862645149230957e-09,
        0.6007513403892517,
        2.7798598978279188e-09
      ]
    },
    {
      "children": [
        25
      ],
      "name": "Bone.004_014",
      "rotation": [
        0.05598091334104538,
        -2.33152477449039e-05,
        -0.0004159235686529428,
        0.9984318614006042
      ],
      "scale": [
        1.0,
        0.9999998807907104,
        1.0
      ],
      "translation": [
        -9.590611860232912e-09,
        2.0500714778900146,
        -4.771891326527111e-09
      ]
    },
    {
      "children": [
        26
      ],
      "name": "Bone.005_015",
      "rotation": [
        -0.05597977712750435,
        -0.0003498568257782608,
        -0.006239813286811113,
        0.9984123706817627
      ],
      "scale": [
        0.9999999403953552,
        1.0,
        1.0
      ],
      "translation": [
        -1.3723876257643042e-08,
        1.4670079946517944,
        5.0640664994716644e-09
      ]
    },
    {
      "children": [
        27
      ],
      "name": "Bone.021_016",
      "rotation": [
        -1.4546781130775344e-06,
        0.7173757553100586,
        -0.6966864466667175,
        1.5179666661424562e-06
      ],
      "scale": [
        1.0,
        0.9999997615814209,
        0.9999998807907104
      ],
      "translation": [
        -6.864987245336351e-09,
        0.6737642288208008,
        -1.6557159199237503e-08
      ]
    },
    {
      "name": "Bone.021_end_091",
      "rotation": [
        -3.469446951953614e-18,
        1.1249656330721176e-22,
        1.3234889800848443e-23,
        1.0
      ],
      "translation": [
        0.0,
        0.9010788202285767,
        -2.7755575615628914e-17
      ]
    },
    {
      "children": [
        29
      ],
      "name": "Bone.015_017",
      "rotation": [
        0.2907923460006714,
        0.6243327856063843,
        -0.2895083725452423,
        0.6647054553031921
      ],
      "scale": [
        0.9999999403953552,
        0.9999997615814209,
        0.9999999403953552
      ],
      "translation": [
        0.0,
        0.9588616490364075,
        0.0
      ]
    },
    {
      "children": [
        30
      ],
      "name": "Bone.016_018",
      "rotation": [
        -0.31337156891822815,
        -0.6338756680488586,
        0.2679705023765564,
        0.6543635725975037
      ],
      "scale": [
        0.9999999403953552,
        1.0,
        1.0
      ],
      "translation": [
        -2.7939677238464355e-09,
        0.6211974620819092,
        8.777785609481725e-08
      ]
    },
    {
      "children": [
        31
      ],
      "name": "Bone.017_019",
      "rotation": [
        0.05598519369959831,
        2.4045756497059756e-09,
        -1.3483181238171937e-10,
        0.9984316229820251
      ],
      "translation": [
        5.265983760160964e-10,
        2.0407793521881104,
        9.405329848277688e-09
      ]
    },
    {
      "children": [
        32
      ],
      "name": "Bone.018_020",
      "rotation": [
        -0.055985189974308014,
        1.1902231733529334e-07,
        -6.673949393132261e-09,
        0.9984316229820251
      ],
      "scale": [
        1.0,
        0.9999999403953552,
        1.0
      ],
      "translation": [
        -1.1657341758564144e-15,
        1.466895341873169,
        -4.220399674181863e-08
      ]
    },
    {
      "children": [
        33
      ],
      "name": "Bone.022_021",
      "rotation": [
        -1.371668645333557e-06,
        0.7173756957054138,
        -0.6966865062713623,
        1.6035254475355032e-06
      ],
      "scale": [
        1.0,
        0.9999998211860657,
        0.9999999403953552
      ],
      "translation": [
        -5.559685600786679e-09,
        0.7010541558265686,
        1.6869478258740855e-08
      ]
    },
    {
      "name": "Bone.022_end_092",
      "rotation": [
        -1.5414283107572988e-44,
        -6.001195344072216e-22,
        -2.6469779601696886e-23,
        1.0
      ],
      "translation": [
        0.0,
        0.9010788202285767,
        2.7755575615628914e-17
      ]
    },
    {
      "matrix": [
        100.0,
        0.0,
        0.0,
        0.0,
        0.0,
        3.6939958162459723e-10,
        -54.36643221388509,
        0.0,
        0.0,
        99.99998841793824,
        6.794625356088119e-10,
        0.0,
        -3.836930773104541e-13,
        600.7506364038298,
        1.473234306104132e-06,
        1.0
      ],
      "name": "Object_34"
    },
    {
      "mesh": 0,
      "name": "Object_35",
      "skin": 0
    },
    {
      "mesh": 1,
      "name": "Object_36",
      "skin": 0
    },
    {
      "mesh": 2,
      "name": "Object_37",
      "skin": 0
    },
    {
      "mesh": 3,
      "name": "Object_38",
      "skin": 0
    },
    {
      "mesh": 4,
      "name": "Object_39",
      "skin": 0
    },
    {
      "name": "Cube",
      "rotation": [
        -0.7071068286895752,
        0.0,
        0.0,
        0.7071067094802856
      ],
      "scale": [
        100.0,
        54.36643981933594,
        100.0
      ],
      "translation": [
        0.0,
        600.7506103515625,
        0.0
      ]
    },
    {
      "name": "anim.run",
      "rotation": [
        -0.7071068286895752,
        1.0048593257667732e-14,
        8.18561808603396e-22,
        0.7071067094802856
      ],
      "scale": [
        100.0,
        99.99999237060547,
        99.99999237060547
      ],
      "translation": [
        0.0,
        600.7505493164063,
        -487.0037536621094
      ]
    },
    {
      "name": "anim.idle",
      "rotation": [
        -0.7071068286895752,
        1.0048593257667732e-14,
        8.18561808603396e-22,
        0.7071067094802856
      ],
      "scale": [
        100.0,
        99.99999237060547,
        99.99999237060547
      ],
      "translation": [
        0.0,
        600.7505493164063,
        459.0019836425781
      ]
    },
    {
      "name": "anim.walk",
      "rotation": [
        -0.7071068286895752,
        1.0048593257667732e-14,
        8.18561808603396e-22,
        0.7071067094802856
      ],
      "scale": [
        100.0,
        99.99999237060547,
        99.99999237060547
      ],
      "translation": [
        0.0,
        600.7505493164063,
        0.0
      ]
    },
    {
      "children": [
        45
      ],
      "name": "Point",
      "rotation": [
        -3.774895063202166e-08,
        -0.0,
        0.0,
        1.0
      ],
      "scale": [
        100.0,
        100.0,
        100.0
      ],
      "translation": [
        0.0,
        963.54931640625,
        205.40484619140625
      ]
    },
    {
      "children": [
        46
      ],
      "matrix": [
        1.0,
        0.0,
        0.0,
        0.0,
        0.0,
        2.220446049250313e-16,
        1.0,
        0.0,
        0.0,
        -1.0,
        2.220446049250313e-16,
        0.0,
        0.0,
        0.0,
        0.0,
        1.0
      ],
      "name": "Object_45"
    },
    {
      "name": "Object_46"
    },
    {
      "children": [
        48
      ],
      "name": "Camera",
      "rotation": [
        0.03387181833386421,
        0.7062950730323792,
        0.03387181833386421,
        0.7062950134277344
      ],
      "scale": [
        99.99999237060547,
        99.99999237060547,
        100.0
      ],
      "translation": [
        0.0,
        713.0055541992188,
        1437.752197265625
      ]
    },
    {
      "name": "Object_48"
    }
  ],
  "scene": 0,
  "scenes": [
    {
      "name": "Sketchfab_Scene",
      "nodes": [
        0
      ]
    }
  ],
  "skins": [
    {
      "inverseBindMatrices": 15,
      "joints": [
        6,
        7,
        8,
        9,
        10,
        11,
        12,
        13,
        14,
        15,
        16,
        17,
        18,
        19,
        20,
        21,
        22,
        23,
        24,
        25,
        26,
        27,
        28,
        29,
        30,
        31,
        32,
        33
      ],
      "skeleton": 6
    }
  ]
}
